# xmcd CD database file
#
# Track frame offsets:
#	183
#	14138
#	28910
#	46285
#	59750
#	74158
#	88603
#	104958
#	119695
#	135068
#	148865
#	166543
#	176218
#	191018
#	209100
#	223225
#	236510
#	257198
#
# Disc length: 3595 seconds
#
# Revision: 0
# Processed by: cddbd v1.5.1PL0 Copyright (c) Steve Scherf et al.
# Submitted via: CDex 1.51
#
DISCID=2d0e0912
DTITLE=The Harlem Ramblers Dixiland Jazz Band - The Best from ...
DYEAR=1987
DGENRE=Jazz
TTITLE0=Someday You'll Be Sorry
TTITLE1=Majorca
TTITLE2=Mood Indigo
TTITLE3=Harlem Boogie
TTITLE4=Ich gleube ich hock jetzt ab
TTITLE5=Trogs Blues
TTITLE6=You Made Me Love You
TTITLE7=Bei mir bist du schön
TTITLE8=Tiger Rag
TTITLE9=When You Wore A Tulip
TTITLE10=Blue Turning Grey Over You
TTITLE11=Mabel's Dream
TTITLE12=Ice Cream
TTITLE13=Wang Wang Blues
TTITLE14=King Of The Zulus
TTITLE15=When I'm Sixty Four
TTITLE16=Blues In The Air
TTITLE17=When The Saints ...
EXTD=YEAR: 1987
EXTT0=
EXTT1=
EXTT2=
EXTT3=
EXTT4=
EXTT5=
EXTT6=
EXTT7=
EXTT8=
EXTT9=
EXTT10=
EXTT11=
EXTT12=
EXTT13=
EXTT14=
EXTT15=
EXTT16=
EXTT17=
PLAYORDER=
